<svg viewBox="0 0 32 32" fill="none" xmlns="http://www.w3.org/2000/svg">
<path d="M9.33327 24C7.66964 24 6.07415 23.3678 4.89779 22.2426C3.72142 21.1174 3.06055 19.5913 3.06055 18C3.06055 16.4087 3.72142 14.8826 4.89779 13.7573C6.07415 12.6321 7.66964 12 9.33327 12C9.72619 10.2495 10.8756 8.71129 12.5287 7.72359C13.3473 7.23454 14.2648 6.89537 15.229 6.72546C16.1931 6.55555 17.1851 6.55821 18.1481 6.73331C19.1111 6.90841 20.0264 7.2525 20.8417 7.74595C21.6569 8.2394 22.3562 8.87253 22.8996 9.60921C23.443 10.3459 23.8199 11.1717 24.0087 12.0394C24.1975 12.9072 24.1945 13.7999 23.9999 14.6666H25.3333C26.571 14.6666 27.7579 15.1583 28.6331 16.0335C29.5083 16.9086 29.9999 18.0956 29.9999 19.3333C29.9999 20.571 29.5083 21.758 28.6331 22.6331C27.7579 23.5083 26.571 24 25.3333 24H23.9999" stroke="#2563EB" stroke-width="2" stroke-linecap="round" stroke-linejoin="round"/>
<path d="M12 20L16 16L20 20" stroke="#2563EB" stroke-width="2" stroke-linecap="round" stroke-linejoin="round"/>
<path d="M16 16V28" stroke="#2563EB" stroke-width="2" stroke-linecap="round" stroke-linejoin="round"/>
</svg>
